<svg xmlns="http://www.w3.org/2000/svg" version="1.1" xmlns:xlink="http://www.w3.org/1999/xlink"
    xmlns:svgjs="http://svgjs.com/svgjs" width="150px" height="150px"><svg xmlns="http://www.w3.org/2000/svg"
        xmlns:xlink="http://www.w3.org/1999/xlink" viewBox="0,0,256,256" width="150px" height="150px">
        <g fill="none" fill-rule="nonzero" stroke="none" stroke-width="1" stroke-linecap="butt" stroke-linejoin="miter"
            stroke-miterlimit="10" stroke-dasharray="" stroke-dashoffset="0" font-family="none" font-weight="none"
            font-size="none" text-anchor="none" style="mix-blend-mode: normal">
            <g transform="scale(5.12,5.12)">
                <path
                    d="M46,22.11v2.31l-3,1.73v8.09l-18,10.39l-11,-6.35v-2.31l-2,-1.16l-2,1.16l-3,-1.73v-13.86l-3,0.58v-2.31l18,-10.39l12,-2.31z"
                    fill="#e0eaed"></path>
                <path d="M25,30.774l3,4.041l15,-8.66v8.083l-18,10.392z" fill="#b8c5c8"></path>
                <path d="M16,18.649l-12,2.31v-2.31l12,-2.309l12,16.166v2.309z" fill="#ff5757"></path>
                <path d="M34,8.257l-12,2.309v-2.309l12,-2.31l12,16.166v2.31z" fill="#b8c5c8"></path>
                <path d="M4,18.649l18,-10.392l12,-2.31l-18,10.393z" fill="#e64e4e"></path>
                <path d="M28,32.506l18,-10.393l-12,-16.166l-18,10.393z" fill="#cc4545"></path>
                <path d="M28,32.506l18,-10.393v2.31l-18,10.392z" fill="#b33d3d"></path>
                <path d="M17,34.238l5,2.886v-5.773l-5,-2.887z" fill="#b8c5c8"></path>
                <path d="M10,35.97l2,-1.155v-6.928l-2,-1.155z" fill="#b8c5c8"></path>
                <path d="M19,33.083l3,1.732v-3.464l-3,-1.732z" fill="#4ad8ff"></path>
                <path d="M17,34.238l5,2.886v-2.309l-3,-1.732z" fill="#cee2e7"></path>
                <path d="M12,34.815l2,1.155v-6.929l-2,-1.154z" fill="#ff5757"></path>
            </g>
        </g>
    </svg>
    <style>
        @media (prefers-color-scheme: light) {
            :root {
                filter: none;
            }
        }
    </style>
</svg>