<?xml version="1.0" encoding="utf-8"?>
<!-- Generator: Adobe Illustrator 21.0.0, SVG Export Plug-In . SVG Version: 6.00 Build 0)  -->
<svg version="1.1" id="Layer_1" xmlns="http://www.w3.org/2000/svg" xmlns:xlink="http://www.w3.org/1999/xlink" x="0px" y="0px"
	 viewBox="0 0 90 106" style="enable-background:new 0 0 90 106;" xml:space="preserve">
<style type="text/css">
	.st0{fill:#00BCD4;}
	.st1{fill:#FFFFFF;}
</style>
<g>
	<path class="st0" d="M80.1,32c-0.3,0.2-0.5,0.4-0.8,0.6C68.2,39.8,57,47,45.9,54.3c-0.5,0.3-0.9,0.5-1.5,0.1
		c-11.2-7.4-22.5-14.7-33.7-22c-0.2-0.1-0.3-0.2-0.5-0.4c0.3-0.2,0.5-0.4,0.7-0.6c11.1-7,22.3-14.1,33.4-21.2c0.6-0.4,1-0.4,1.6,0
		C57,17.3,68.2,24.3,79.3,31.4C79.6,31.6,79.8,31.8,80.1,32z"/>
	<path class="st0" d="M9.6,36.9c0.4,0.2,0.7,0.3,0.9,0.5c10.6,6.7,21.2,13.5,31.7,20.2c0.5,0.3,0.9,0.6,0.9,1.3
		c0,11.9,0,23.7,0,35.6c0,0.1,0,0.2,0,0.4c-0.3-0.1-0.5-0.2-0.7-0.3c-10.8-7-21.5-14-32.2-21c-0.3-0.2-0.6-0.7-0.6-1
		c0-11.7,0-23.5,0-35.2C9.6,37.3,9.6,37.2,9.6,36.9z"/>
	<path class="st0" d="M47.1,95c0-0.5,0-0.8,0-1.1c0-11.6,0-23.2,0-34.8c0-0.7,0.2-1.1,0.8-1.4C58.5,51,69.1,44.2,79.7,37.4
		c0.2-0.2,0.5-0.3,0.9-0.5c0,0.5,0,0.9,0,1.2c0,11.4,0,22.8,0,34.2c0,0.8-0.2,1.2-0.9,1.6c-10.5,6.8-21,13.6-31.5,20.4
		C48,94.5,47.6,94.7,47.1,95z"/>
	<g id="XMLID_1_">
		<g>
			<path class="st1" d="M73.7,49.5c0.7,1,0.6,2-0.3,2.6c-5.5,3.7-11.1,7.3-16.7,10.9c-1.2,0.8-2.9-0.5-2.9-2.5
				c0.1-0.2,0.3-0.8,0.7-0.9c4.6-3.1,9.3-6.1,16.7-10.9C72,48.1,73,48.5,73.7,49.5z"/>
			<path class="st1" d="M73.6,68.8c0.7,1,0.6,2-0.3,2.6c-9.5,6.4-13.5,8.8-16.7,10.9c-0.4,0.2-1.1,0.2-1.6,0
				c-0.9-0.4-1.3-1.2-1.3-2.5c0.2-0.2,0.4-0.7,0.8-1c5.5-3.6,11-7.2,16.6-10.8C71.9,67.4,72.9,67.8,73.6,68.8z"/>
			<path class="st1" d="M73.6,59.4c0.6,1.1,0.5,2-0.4,2.6c-7.3,4.8-11.9,7.8-16.6,10.8c-0.4,0.3-1.1,0.3-1.6,0.1
				c-0.9-0.4-1.3-1.2-1.3-2.5c0.2-0.2,0.4-0.7,0.8-1c5.5-3.6,11.1-7.2,16.6-10.8C72,58,73,58.4,73.6,59.4z"/>
			<path class="st1" d="M35.1,69.2c0.6,0.4,1.1,0.8,1,1.3c-0.1,1.3-0.6,2.1-1.3,2.4c-0.7,0.4-1.3,0.1-1.9-0.3
				c-5.4-3.5-10.7-6.9-16-10.4c-1.2-0.8-1.4-1.6-0.7-2.8c0.7-1.2,1.7-1.4,2.9-0.6C24.6,62.3,27.7,64.4,35.1,69.2z"/>
			<path class="st1" d="M35.1,59.3c0.5,0.3,0.8,0.9,1,1.1c-0.1,1.4-0.5,2.1-1.2,2.5c-0.7,0.5-1.4,0.1-2-0.3
				c-7.4-4.8-10.5-6.8-16-10.4c-1.3-0.8-1.5-1.6-0.7-2.8c0.7-1.2,1.7-1.4,2.9-0.6C24.6,52.4,27.8,54.5,35.1,59.3z"/>
			<path class="st1" d="M35.1,78.7c0.5,0.3,0.8,0.9,1,1.1c-0.1,1.4-0.5,2.1-1.3,2.5c-0.7,0.5-1.4,0.1-2-0.3
				c-7.9-5.1-11.1-7.2-15.9-10.3c-1.3-0.8-1.5-1.7-0.7-2.9c0.7-1.2,1.7-1.4,2.9-0.6C24.4,71.7,29.8,75.2,35.1,78.7z"/>
		</g>
		<g>
		</g>
	</g>
</g>
</svg>
